<?xml version="1.0" encoding="us-ascii" standalone="no"?><svg xmlns="http://www.w3.org/2000/svg" xmlns:xlink="http://www.w3.org/1999/xlink" contentStyleType="text/css" height="209px" preserveAspectRatio="none" style="width:678px;height:209px;background:#FFFFFF;" version="1.1" viewBox="0 0 678 209" width="678px" zoomAndPan="magnify"><defs/><g><line style="stroke:#181818;stroke-width:0.5;stroke-dasharray:5.0,5.0;" x1="72" x2="72" y1="36.4883" y2="173.7305"/><line style="stroke:#181818;stroke-width:0.5;stroke-dasharray:5.0,5.0;" x1="202" x2="202" y1="36.4883" y2="173.7305"/><line style="stroke:#181818;stroke-width:0.5;stroke-dasharray:5.0,5.0;" x1="346.5" x2="346.5" y1="36.4883" y2="173.7305"/><line style="stroke:#181818;stroke-width:0.5;stroke-dasharray:5.0,5.0;" x1="484.5" x2="484.5" y1="36.4883" y2="173.7305"/><line style="stroke:#181818;stroke-width:0.5;stroke-dasharray:5.0,5.0;" x1="656.5" x2="656.5" y1="36.4883" y2="173.7305"/><rect fill="#E2E2F0" height="30.4883" rx="2.5" ry="2.5" style="stroke:#181818;stroke-width:0.5;" width="135" x="5" y="5"/><text fill="#000000" font-family="sans-serif" font-size="14" lengthAdjust="spacing" textLength="121" x="12" y="25.5352">MessageProducer</text><rect fill="#E2E2F0" height="30.4883" rx="2.5" ry="2.5" style="stroke:#181818;stroke-width:0.5;" width="135" x="5" y="172.7305"/><text fill="#000000" font-family="sans-serif" font-size="14" lengthAdjust="spacing" textLength="121" x="12" y="193.2656">MessageProducer</text><rect fill="#E2E2F0" height="30.4883" rx="2.5" ry="2.5" style="stroke:#181818;stroke-width:0.5;" width="59" x="173" y="5"/><text fill="#000000" font-family="sans-serif" font-size="14" lengthAdjust="spacing" textLength="45" x="180" y="25.5352">Queue</text><rect fill="#E2E2F0" height="30.4883" rx="2.5" ry="2.5" style="stroke:#181818;stroke-width:0.5;" width="59" x="173" y="172.7305"/><text fill="#000000" font-family="sans-serif" font-size="14" lengthAdjust="spacing" textLength="45" x="180" y="193.2656">Queue</text><rect fill="#E2E2F0" height="30.4883" rx="2.5" ry="2.5" style="stroke:#181818;stroke-width:0.5;" width="144" x="274.5" y="5"/><text fill="#000000" font-family="sans-serif" font-size="14" lengthAdjust="spacing" textLength="130" x="281.5" y="25.5352">MessageConsumer</text><rect fill="#E2E2F0" height="30.4883" rx="2.5" ry="2.5" style="stroke:#181818;stroke-width:0.5;" width="144" x="274.5" y="172.7305"/><text fill="#000000" font-family="sans-serif" font-size="14" lengthAdjust="spacing" textLength="130" x="281.5" y="193.2656">MessageConsumer</text><rect fill="#E2E2F0" height="30.4883" rx="2.5" ry="2.5" style="stroke:#181818;stroke-width:0.5;" width="112" x="428.5" y="5"/><text fill="#000000" font-family="sans-serif" font-size="14" lengthAdjust="spacing" textLength="98" x="435.5" y="25.5352">Other Rest API</text><rect fill="#E2E2F0" height="30.4883" rx="2.5" ry="2.5" style="stroke:#181818;stroke-width:0.5;" width="112" x="428.5" y="172.7305"/><text fill="#000000" font-family="sans-serif" font-size="14" lengthAdjust="spacing" textLength="98" x="435.5" y="193.2656">Other Rest API</text><rect fill="#E2E2F0" height="30.4883" rx="2.5" ry="2.5" style="stroke:#181818;stroke-width:0.5;" width="32" x="640.5" y="5"/><text fill="#000000" font-family="sans-serif" font-size="14" lengthAdjust="spacing" textLength="18" x="647.5" y="25.5352">DB</text><rect fill="#E2E2F0" height="30.4883" rx="2.5" ry="2.5" style="stroke:#181818;stroke-width:0.5;" width="32" x="640.5" y="172.7305"/><text fill="#000000" font-family="sans-serif" font-size="14" lengthAdjust="spacing" textLength="18" x="647.5" y="193.2656">DB</text><polygon fill="#181818" points="190.5,63.7988,200.5,67.7988,190.5,71.7988,194.5,67.7988" style="stroke:#181818;stroke-width:1.0;"/><line style="stroke:#181818;stroke-width:1.0;" x1="72.5" x2="196.5" y1="67.7988" y2="67.7988"/><text fill="#000000" font-family="sans-serif" font-size="13" font-weight="bold" lengthAdjust="spacing" textLength="9" x="79.5" y="63.0566">1</text><text fill="#000000" font-family="sans-serif" font-size="13" lengthAdjust="spacing" textLength="93" x="92.5" y="63.0566">send(message)</text><polygon fill="#181818" points="334.5,93.1094,344.5,97.1094,334.5,101.1094,338.5,97.1094" style="stroke:#181818;stroke-width:1.0;"/><line style="stroke:#181818;stroke-width:1.0;" x1="202.5" x2="340.5" y1="97.1094" y2="97.1094"/><text fill="#000000" font-family="sans-serif" font-size="13" font-weight="bold" lengthAdjust="spacing" textLength="9" x="209.5" y="92.3672">2</text><text fill="#000000" font-family="sans-serif" font-size="13" lengthAdjust="spacing" textLength="107" x="222.5" y="92.3672">receive(message)</text><polygon fill="#181818" points="472.5,122.4199,482.5,126.4199,472.5,130.4199,476.5,126.4199" style="stroke:#181818;stroke-width:1.0;"/><line style="stroke:#181818;stroke-width:1.0;" x1="346.5" x2="478.5" y1="126.4199" y2="126.4199"/><text fill="#000000" font-family="sans-serif" font-size="13" font-weight="bold" lengthAdjust="spacing" textLength="9" x="353.5" y="121.6777">3</text><text fill="#000000" font-family="sans-serif" font-size="13" lengthAdjust="spacing" textLength="82" x="366.5" y="121.6777">/POST object</text><polygon fill="#181818" points="644.5,151.7305,654.5,155.7305,644.5,159.7305,648.5,155.7305" style="stroke:#181818;stroke-width:1.0;"/><line style="stroke:#181818;stroke-width:1.0;" x1="484.5" x2="650.5" y1="155.7305" y2="155.7305"/><text fill="#000000" font-family="sans-serif" font-size="13" font-weight="bold" lengthAdjust="spacing" textLength="9" x="491.5" y="150.9883">4</text><text fill="#000000" font-family="sans-serif" font-size="13" lengthAdjust="spacing" textLength="135" x="504.5" y="150.9883">create_update(object)</text><!--SRC=[NOkx2W8n44NxVCMmrMuXzYa47us5R7pqaaqkFY2993D-lv48mbPpcNEE5KvHmeIi3YZ5tc1oykAGQR6Yeq10cWgYxqFZWshVYd_5DiKYeHQQCXmUR_pTkLAhRkHxNISKfhNPTvgMPZnVA4rFE5Pp_4rs6qqkmpAkylBrz4qUr0S0]--></g></svg>